<svg width="79" height="99" viewBox="0 0 79 99" fill="none" xmlns="http://www.w3.org/2000/svg">
<path d="M47.0071 2.98867L49.3521 0.280189L52.9166 0.74717L51.1343 -2.33491L52.6352 -5.60378L49.1645 -4.76321L46.5381 -7.19151L46.1628 -3.64246L43.0674 -1.96132L46.3504 -0.466983L47.0071 2.98867Z" fill="#FFE400"/>
<path d="M34.8128 22.3217C30.1227 22.3217 25.8079 23.5358 22.0558 25.6839C32.7492 27.6453 40.9099 36.9849 40.9099 48.1924C40.9099 59.2132 33.0306 68.4594 22.6186 70.6075C26.2769 72.5689 30.4041 73.6896 34.8128 73.6896C49.0707 73.6896 60.6083 62.2019 60.6083 48.0056C60.6083 33.8094 49.0707 22.3217 34.8128 22.3217Z" fill="#FFE400"/>
<path d="M68.769 57.8123L66.5178 58.2792L64.9232 56.7849L64.6418 59.0264L62.6719 60.0538L64.7356 60.9877L65.2046 63.1359L66.7054 61.4547L68.9566 61.7349L67.831 59.7736L68.769 57.8123Z" fill="#FFE400"/>
<path d="M5.37687 89.5604L4.15744 89.8406L3.21942 89L3.12563 90.2141L2 90.8679L3.21942 91.3349L3.40702 92.5491L4.25125 91.6151L5.47067 91.8019L4.90786 90.6811L5.37687 89.5604Z" fill="#FFE400"/>
<path d="M26.3707 41.9349L23.0876 38.8528L22.6186 43.3359L18.679 45.5774L22.8062 47.3519L23.7443 51.8349L26.7459 48.3792L31.2484 48.9396L28.9033 45.017L30.8732 40.9076L26.3707 41.9349Z" fill="#FFE400"/>
</svg>
