<svg width="70" height="70" viewBox="0 0 70 70" fill="none" xmlns="http://www.w3.org/2000/svg">
<path d="M34.5 13.8738C22.3793 13.8738 12.5717 23.7239 12.5717 35.8973C12.5717 48.0706 22.3793 57.9208 34.5 57.9208C46.6207 57.9208 56.4283 48.0706 56.4283 35.8973C56.4283 23.8169 46.6207 13.8738 34.5 13.8738Z" fill="#FF7702"/>
<path d="M34.7302 13.8738C22.4823 13.8738 12.5717 23.7843 12.5717 36.0323C12.5717 48.2803 22.4823 58.1909 34.7302 58.1909C46.9782 58.1909 56.8888 48.2803 56.8888 36.0323C56.8888 23.8778 46.9782 13.8738 34.7302 13.8738ZM33.8888 56.7884C22.4823 56.7884 13.2262 47.5323 13.2262 36.1258C13.2262 24.7193 22.4823 15.4632 33.8888 15.4632C45.2953 15.4632 54.5514 24.7193 54.5514 36.1258C54.6449 47.5323 45.3888 56.7884 33.8888 56.7884Z" fill="#FF7702"/>
<path d="M37.1611 6.5811C37.1611 7.79655 36.2262 8.82501 35.1042 8.82501C33.9823 8.82501 33.0473 7.79655 33.0473 6.5811V2.65427C33.0473 1.43883 33.9823 0.41037 35.1042 0.41037C36.2262 0.41037 37.1611 1.43883 37.1611 2.65427V6.5811Z" fill="#FF7702"/>
<path d="M37.1611 67.1665C37.1611 68.3819 36.2262 69.4104 35.1042 69.4104C33.9823 69.4104 33.0473 68.3819 33.0473 67.1665V63.2397C33.0473 62.0242 33.9823 60.9958 35.1042 60.9958C36.2262 60.9958 37.1611 62.0242 37.1611 63.2397V67.1665Z" fill="#FF7702"/>
<path d="M63.34 36.9673C62.1246 36.9673 61.0961 36.0323 61.0961 34.9104C61.0961 33.7884 62.1246 32.8535 63.34 32.8535H67.2668C68.4823 32.8535 69.5107 33.7884 69.5107 34.9104C69.5107 36.0323 68.4823 36.9673 67.2668 36.9673H63.34Z" fill="#FF7702"/>
<path d="M2.75464 36.9673C1.5392 36.9673 0.510742 36.0323 0.510742 34.9104C0.510742 33.7884 1.5392 32.8535 2.75464 32.8535H6.68147C7.89692 32.8535 8.92537 33.7884 8.92537 34.9104C8.92537 36.0323 7.89692 36.9673 6.68147 36.9673H2.75464Z" fill="#FF7702"/>
<path d="M56.5148 16.3047C55.6733 17.1461 54.2709 17.2396 53.4294 16.3982C52.588 15.5567 52.6815 14.2478 53.5229 13.3128L56.3278 10.5079C57.1693 9.66647 58.5717 9.57297 59.4132 10.4144C60.2546 11.2559 60.1611 12.5648 59.3197 13.4998L56.5148 16.3047Z" fill="#FF7702"/>
<path d="M13.6937 59.2193C12.8522 60.0608 11.4498 60.1543 10.6083 59.3128C9.76686 58.4713 9.86036 57.1624 10.7018 56.2274L13.5067 53.4226C14.3482 52.5811 15.7506 52.4876 16.5921 53.3291C17.4335 54.1705 17.34 55.4795 16.4986 56.4144L13.6937 59.2193Z" fill="#FF7702"/>
<path d="M53.6164 56.4144C52.775 55.573 52.6815 54.1705 53.5229 53.3291C54.3644 52.4876 55.6733 52.5811 56.6083 53.4226L59.4132 56.2274C60.2546 57.0689 60.3481 58.4713 59.5067 59.3128C58.6652 60.1543 57.3563 60.0608 56.4213 59.2193L53.6164 56.4144Z" fill="#FF7702"/>
<path d="M10.7953 13.4998C9.95383 12.6583 9.86034 11.2559 10.7018 10.4144C11.5433 9.57297 12.8522 9.66647 13.7872 10.5079L16.592 13.3128C17.4335 14.1543 17.527 15.5567 16.6855 16.3982C15.8441 17.2396 14.5351 17.1461 13.6002 16.3047L10.7953 13.4998Z" fill="#FF7702"/>
</svg>
