<svg width="152" height="99" viewBox="0 0 152 99" fill="none" xmlns="http://www.w3.org/2000/svg">
<path d="M113.5 -54.1698H-0.937988V153.17H113.5V-54.1698Z" fill="#B3E8FF"/>
<path d="M12.0682 45.9896C12.162 45.616 12.2558 45.2424 12.3496 44.8689C12.8186 41.5066 10.4736 38.6113 7.2843 37.8641C6.53389 37.6774 5.68967 37.584 4.93926 37.6773C4.93926 37.584 4.93927 37.584 5.03307 37.4906C5.40827 36.2764 5.59588 34.7821 5.22066 33.5679C4.75166 32.3538 4.18885 31.1396 3.25083 30.1123C1.56241 28.2443 -0.876434 27.217 -3.31528 26.8434C-4.62851 26.6566 -5.84792 26.75 -7.16115 26.9368C-7.16115 26.0028 -7.25495 24.9755 -7.53635 24.0415C-8.19296 21.5198 -10.1628 19.3717 -12.2264 17.9708C-14.3839 16.4764 -17.1041 16.1962 -19.7306 16.7566C-20.012 16.85 -20.2934 16.85 -20.5748 16.9434C-21.5128 14.8887 -23.8578 13.6745 -26.0153 13.2075C-27.4223 12.9274 -29.0169 13.0208 -30.424 13.3943C-31.831 13.7679 -32.9566 14.5151 -33.9884 15.3557C-35.0202 16.1962 -35.8645 17.4104 -36.4273 18.6245C-37.0839 19.9321 -37.1777 21.5198 -37.1777 22.9208C-37.1777 24.1349 -36.7087 25.1623 -36.1459 26.0962C-36.4273 26.283 -36.7087 26.4698 -36.9901 26.6566C-37.8343 27.4038 -38.4909 28.3377 -38.7723 29.3651C-39.1475 29.1783 -39.4289 29.0849 -39.8041 28.9915C-41.1173 28.6179 -42.5244 28.5245 -43.9314 28.6179C-45.2446 28.7113 -46.5578 29.1783 -47.7773 29.8321C-50.2161 31.0462 -52.4674 32.4472 -53.7806 34.8755C-54.062 35.5292 -54.3434 36.2764 -54.4372 37.0236C-54.6248 36.9302 -54.9062 36.9302 -55.0938 36.8368C-56.876 36.4632 -58.5645 36.65 -60.2529 37.3038C-63.2545 38.4245 -65.1306 41.7868 -65.3182 44.7755C-65.3182 45.1491 -65.3182 45.5226 -65.3182 45.8962H12.0682V45.9896Z" fill="white"/>
<path d="M68.5247 34.6741C59.9541 26.1035 46.0539 26.1336 37.4461 34.7414C28.8383 43.3492 28.8081 57.2494 37.3788 65.82C45.9494 74.3906 59.8495 74.3605 68.4574 65.7527C76.9995 57.2106 77.0953 43.2447 68.5247 34.6741Z" fill="#FF7702"/>
<path d="M68.6875 34.8369C60.0269 26.1763 46.0112 26.1763 37.3506 34.8369C28.69 43.4975 28.69 57.5132 37.3506 66.1738C46.0112 74.8344 60.0269 74.8344 68.6875 66.1738C77.282 57.5793 77.3481 43.4975 68.6875 34.8369ZM37.7472 64.5871C29.6816 56.5215 29.6816 43.4314 37.7473 35.3658C45.8129 27.3002 58.903 27.3002 66.9686 35.3658C75.0342 43.4314 75.0342 56.5215 66.9686 64.5871C58.9691 72.7189 45.879 72.7189 37.7472 64.5871Z" fill="#FF7702"/>
<path d="M75.5631 31.3991C74.7037 32.2586 73.3153 32.3247 72.522 31.5313C71.7286 30.738 71.7948 29.3497 72.6542 28.4902L75.4309 25.7135C76.2903 24.8541 77.6787 24.788 78.472 25.5813C79.2654 26.3746 79.1993 27.763 78.3398 28.6224L75.5631 31.3991Z" fill="#FF7702"/>
<path d="M32.7228 74.2394C31.8633 75.0989 30.475 75.165 29.6817 74.3716C28.8883 73.5783 28.9544 72.19 29.8139 71.3305L32.5906 68.5538C33.45 67.6944 34.8384 67.6283 35.6317 68.4216C36.425 69.215 36.3589 70.6033 35.4995 71.4627L32.7228 74.2394Z" fill="#FF7702"/>
<path d="M72.5881 71.3967C71.7287 70.5372 71.6625 69.1489 72.4559 68.3555C73.2492 67.5622 74.6376 67.6283 75.497 68.4877L78.2737 71.2644C79.1332 72.1239 79.1993 73.5122 78.4059 74.3056C77.6126 75.0989 76.2242 75.0328 75.3648 74.1733L72.5881 71.3967Z" fill="#FF7702"/>
<path d="M29.7478 28.5563C28.8883 27.6969 28.8222 26.3085 29.6155 25.5152C30.4089 24.7218 31.7972 24.788 32.6567 25.6474L35.4334 28.4241C36.2928 29.2835 36.3589 30.6719 35.5656 31.4652C34.7723 32.2586 33.3839 32.1925 32.5245 31.333L29.7478 28.5563Z" fill="#FF7702"/>
<path d="M82.3726 51.9598C81.1826 51.9598 80.1248 51.0343 80.1248 49.8443C80.1248 48.6542 81.1165 47.7948 82.3726 47.7287L86.3393 47.7287C87.5293 47.7287 88.5871 48.6542 88.5871 49.8442C88.5871 51.0343 87.5954 51.8937 86.3393 51.9598L82.3726 51.9598Z" fill="#FF7702"/>
<path d="M21.7483 52.026C20.5583 52.026 19.5005 51.1004 19.5005 49.9104C19.5005 48.7204 20.4922 47.8609 21.7483 47.7948L25.715 47.7948C26.905 47.7948 27.9628 48.7204 27.9628 49.9104C27.9628 51.1004 26.9711 51.9598 25.715 52.026L21.7483 52.026Z" fill="#FF7702"/>
<path d="M51.9613 78.2722C51.9613 77.0822 52.8868 76.0245 54.0768 76.0245C55.2669 76.0245 56.1263 77.0161 56.1924 78.2722L56.1924 82.2389C56.1924 83.429 55.2668 84.4867 54.0768 84.4867C52.8868 84.4867 52.0274 83.4951 51.9613 82.2389L51.9613 78.2722Z" fill="#FF7702"/>
<path d="M52.0274 17.6479C52.0274 16.4579 52.9529 15.4001 54.1429 15.4001C55.333 15.4001 56.1924 16.3918 56.2585 17.6479L56.2585 21.6146C56.2585 22.8046 55.333 23.8624 54.1429 23.8624C52.9529 23.8624 52.0935 22.8707 52.0274 21.6146L52.0274 17.6479Z" fill="#FF7702"/>
<path d="M151.325 114.536C151.43 114.256 151.43 114.069 151.535 113.789C152.058 110.426 149.442 107.531 145.883 106.784C145.046 106.597 144.104 106.504 143.266 106.597C143.266 106.504 143.266 106.504 143.371 106.41C143.79 105.196 143.999 103.702 143.58 102.488C143.057 101.274 142.429 100.059 141.382 99.0321C139.499 97.1641 136.777 96.1368 134.056 95.7632C132.591 95.5764 131.23 95.6698 129.765 95.8566C129.765 94.9226 129.66 93.8953 129.346 92.9613C128.614 90.4396 126.416 88.2915 124.113 86.8905C121.706 85.3962 118.671 85.116 115.74 85.6764C115.426 85.7698 115.112 85.7698 114.798 85.8632C113.752 83.8085 111.135 82.5943 108.728 82.1273C107.158 81.8471 105.378 81.9405 103.809 82.3141C102.239 82.6877 100.983 83.4349 99.8314 84.2754C98.6801 85.116 97.7381 86.3302 97.1101 87.5443C96.3775 88.8519 96.2728 90.4396 96.2728 91.8405C96.2728 93.0547 96.7961 94.0821 97.4241 95.016C97.1101 95.2028 96.7961 95.3896 96.4821 95.5764C95.5402 96.3236 94.8075 97.2575 94.4936 98.2849C94.0749 98.0981 93.7609 98.0047 93.3423 97.9113C91.877 97.5377 90.307 97.4443 88.7371 97.5377C87.2718 97.6311 85.8065 98.0981 84.4459 98.7519C81.7247 99.966 79.2128 101.367 77.7475 103.795C77.4335 104.449 77.1195 105.196 77.0149 105.943C76.8055 105.85 76.4915 105.85 76.2822 105.757C74.2936 105.383 72.4097 105.57 70.5258 106.224C67.1765 107.344 65.0833 110.707 64.874 113.695C64.874 113.975 64.874 114.162 64.874 114.442H151.325V114.536Z" fill="white"/>
</svg>
