<svg width="79" height="99" viewBox="0 0 79 99" fill="none" xmlns="http://www.w3.org/2000/svg"><path d="M47.007 2.989 49.352.28l3.565.467-1.783-3.082 1.501-3.269-3.47.84-2.627-2.428-.375 3.55-3.096 1.68L46.35-.466l.657 3.456ZM34.813 22.322c-4.69 0-9.005 1.214-12.757 3.362 10.693 1.961 18.854 11.3 18.854 22.508 0 11.021-7.88 20.267-18.291 22.416 3.658 1.96 7.785 3.082 12.194 3.082 14.258 0 25.795-11.488 25.795-25.684 0-14.197-11.537-25.684-25.795-25.684Zm33.956 35.49-2.251.467-1.595-1.494-.281 2.241-1.97 1.028 2.064.934.469 2.148 1.5-1.681 2.252.28-1.126-1.961.938-1.962ZM5.377 89.56l-1.22.28L3.22 89l-.093 1.214L2 90.868l1.22.467.187 1.214.844-.934 1.22.187-.563-1.12.469-1.122Z" fill="#FFE400"/><path d="m26.37 41.935-3.282-3.082-.47 4.483-3.939 2.241 4.127 1.775.938 4.483 3.002-3.456 4.502.56-2.345-3.922 1.97-4.11-4.502 1.028Z" fill="#FFE400"/></svg>