<svg width="70" height="70" viewBox="0 0 70 70" fill="none" xmlns="http://www.w3.org/2000/svg"><path d="M34.5 13.874c-12.12 0-21.928 9.85-21.928 22.023 0 12.174 9.807 22.024 21.928 22.024 12.12 0 21.928-9.85 21.928-22.024 0-12.08-9.807-22.023-21.928-22.023Z" fill="#FF7702"/><path d="M34.73 13.874c-12.248 0-22.158 9.91-22.158 22.158 0 12.248 9.91 22.159 22.158 22.159 12.248 0 22.159-9.91 22.159-22.159 0-12.154-9.91-22.158-22.159-22.158Zm-.841 42.914c-11.407 0-20.663-9.256-20.663-20.662 0-11.407 9.256-20.663 20.663-20.663 11.406 0 20.662 9.256 20.662 20.663.094 11.406-9.162 20.662-20.662 20.662Zm3.272-50.207c0 1.216-.935 2.244-2.057 2.244-1.122 0-2.057-1.028-2.057-2.244V2.654c0-1.215.935-2.244 2.057-2.244 1.122 0 2.057 1.029 2.057 2.244v3.927Zm0 60.585c0 1.216-.935 2.244-2.057 2.244-1.122 0-2.057-1.028-2.057-2.243V63.24c0-1.216.935-2.244 2.057-2.244 1.122 0 2.057 1.028 2.057 2.244v3.926ZM63.34 36.967c-1.215 0-2.244-.935-2.244-2.057 0-1.122 1.029-2.056 2.244-2.056h3.927c1.215 0 2.244.934 2.244 2.056 0 1.122-1.029 2.057-2.244 2.057H63.34Zm-60.585 0c-1.216 0-2.244-.935-2.244-2.057 0-1.122 1.028-2.056 2.244-2.056H6.68c1.216 0 2.244.934 2.244 2.056 0 1.122-1.028 2.057-2.244 2.057H2.755Zm53.76-20.662c-.842.841-2.244.935-3.086.093-.841-.841-.748-2.15.094-3.085l2.805-2.805c.841-.842 2.244-.935 3.085-.094.842.842.748 2.15-.093 3.086l-2.805 2.805ZM13.694 59.22c-.842.84-2.244.934-3.086.093-.841-.842-.748-2.15.094-3.086l2.805-2.804c.841-.842 2.244-.935 3.085-.094.841.841.748 2.15-.093 3.085l-2.805 2.805Zm39.922-2.806c-.841-.841-.934-2.244-.093-3.085.841-.841 2.15-.748 3.085.094l2.805 2.804c.842.842.935 2.244.094 3.086-.842.841-2.15.748-3.086-.094l-2.805-2.805ZM10.795 13.5c-.841-.842-.935-2.244-.093-3.086.841-.841 2.15-.748 3.085.094l2.805 2.805c.841.841.935 2.244.094 3.085-.842.842-2.15.748-3.086-.093L10.795 13.5Z" fill="#FF7702"/></svg>