<svg width="152" height="99" viewBox="0 0 152 99" fill="none" xmlns="http://www.w3.org/2000/svg"><path d="M113.5-54.17H-.938v207.34H113.5V-54.17Z" fill="#B3E8FF"/><path d="m12.068 45.99.282-1.121c.469-3.362-1.876-6.258-5.066-7.005-.75-.187-1.594-.28-2.345-.187 0-.093 0-.093.094-.186.375-1.215.563-2.709.188-3.923-.47-1.214-1.032-2.428-1.97-3.456-1.689-1.868-4.127-2.895-6.566-3.269-1.314-.186-2.533-.093-3.846.094 0-.934-.094-1.962-.375-2.896-.657-2.521-2.627-4.67-4.69-6.07-2.158-1.495-4.878-1.775-7.505-1.214-.281.093-.562.093-.844.186-.938-2.054-3.283-3.269-5.44-3.736-1.407-.28-3.002-.186-4.409.187-1.407.374-2.533 1.121-3.564 1.962-1.032.84-1.877 2.054-2.44 3.269-.656 1.307-.75 2.895-.75 4.296 0 1.214.47 2.241 1.032 3.175l-.844.56c-.844.748-1.5 1.682-1.782 2.71a4.585 4.585 0 0 0-1.032-.375c-1.313-.373-2.72-.466-4.127-.373-1.314.093-2.627.56-3.846 1.214-2.44 1.214-4.69 2.615-6.004 5.044-.281.653-.562 1.4-.656 2.148-.188-.094-.47-.094-.657-.187-1.782-.374-3.47-.187-5.159.467-3.002 1.12-4.878 4.483-5.065 7.471v1.121h77.386v.094Z" fill="#fff"/><path d="M68.525 34.674c-8.57-8.57-22.471-8.54-31.079.067-8.608 8.608-8.638 22.508-.067 31.079 8.57 8.57 22.47 8.54 31.078-.067 8.543-8.542 8.638-22.508.068-31.079Z" fill="#FF7702"/><path d="M68.688 34.837c-8.661-8.66-22.677-8.66-31.337 0-8.661 8.66-8.661 22.676 0 31.337 8.66 8.66 22.676 8.66 31.337 0 8.594-8.595 8.66-22.677 0-31.337Zm-30.94 29.75c-8.066-8.066-8.066-21.156 0-29.221 8.065-8.066 21.155-8.066 29.22 0 8.066 8.065 8.066 21.156 0 29.221-7.999 8.132-21.089 8.132-29.22 0ZM75.563 31.4c-.86.859-2.248.925-3.041.131-.793-.793-.727-2.181.132-3.04l2.777-2.777c.86-.86 2.248-.926 3.041-.133.793.794.727 2.182-.132 3.041L75.563 31.4Zm-42.84 42.84c-.86.859-2.248.925-3.041.132-.794-.794-.728-2.182.132-3.041l2.777-2.777c.859-.86 2.247-.926 3.04-.132.794.793.728 2.181-.132 3.04l-2.776 2.777Zm39.865-2.843c-.86-.86-.925-2.248-.132-3.041.793-.794 2.182-.728 3.041.132l2.777 2.776c.86.86.925 2.248.132 3.042-.793.793-2.182.727-3.041-.133l-2.777-2.776Zm-42.84-42.841c-.86-.86-.926-2.248-.133-3.04.794-.794 2.182-.728 3.042.131l2.776 2.777c.86.86.926 2.248.133 3.041-.794.794-2.182.728-3.041-.132l-2.777-2.777ZM82.373 51.96c-1.19 0-2.248-.926-2.248-2.116s.992-2.05 2.248-2.115h3.966c1.19 0 2.248.925 2.248 2.115 0 1.19-.992 2.05-2.248 2.116h-3.966Zm-60.625.066c-1.19 0-2.248-.926-2.248-2.116s.992-2.05 2.248-2.115h3.967c1.19 0 2.248.925 2.248 2.115 0 1.19-.992 2.05-2.248 2.116h-3.967Zm30.213 26.246c0-1.19.926-2.248 2.116-2.248s2.05.992 2.115 2.248v3.967c0 1.19-.925 2.248-2.115 2.248-1.19 0-2.05-.992-2.116-2.248v-3.967Zm.066-60.624c0-1.19.926-2.248 2.116-2.248s2.05.992 2.115 2.248v3.967c0 1.19-.925 2.247-2.115 2.247-1.19 0-2.05-.991-2.116-2.247v-3.967Z" fill="#FF7702"/><path d="M151.325 114.536c.105-.28.105-.467.21-.747.523-3.363-2.093-6.258-5.652-7.005-.837-.187-1.779-.28-2.617-.187 0-.093 0-.093.105-.187.419-1.214.628-2.708.209-3.922-.523-1.214-1.151-2.429-2.198-3.456-1.883-1.868-4.605-2.895-7.326-3.269-1.465-.187-2.826-.093-4.291.094 0-.934-.105-1.962-.419-2.896-.732-2.521-2.93-4.67-5.233-6.07-2.407-1.495-5.442-1.775-8.373-1.215-.314.094-.628.094-.942.187-1.046-2.055-3.663-3.269-6.07-3.736-1.57-.28-3.35-.186-4.919.187-1.57.374-2.826 1.12-3.978 1.961-1.15.841-2.093 2.055-2.72 3.27-.734 1.307-.838 2.895-.838 4.296 0 1.214.523 2.241 1.151 3.175l-.942.56c-.942.748-1.674 1.681-1.988 2.709a5.514 5.514 0 0 0-1.152-.374c-1.465-.373-3.035-.467-4.605-.373-1.465.093-2.93.56-4.291 1.214-2.721 1.214-5.233 2.615-6.698 5.043-.315.654-.629 1.401-.733 2.148-.21-.093-.523-.093-.733-.186-1.988-.374-3.872-.187-5.756.467-3.35 1.12-5.443 4.483-5.652 7.471v.747h86.451v.094Z" fill="#fff"/></svg>