<svg style="enable-background:new 0 0 32 32" viewBox="0 0 32 32" xml:space="preserve" xmlns="http://www.w3.org/2000/svg"><path d="M5.656 8.847V26.56A3.443 3.443 0 0 0 9.095 30h13.809a3.443 3.443 0 0 0 3.439-3.439V8.847H5.656zm14.016 4.291a1 1 0 1 1 2 0v10.575a1 1 0 1 1-2 0V13.138zm-4.672 0a1 1 0 0 1 2 0v10.575a1 1 0 1 1-2 0V13.138zm-4.672 0a1 1 0 0 1 2 0v10.575a1 1 0 1 1-2 0V13.138z" style="fill:#e4edf2"/><path d="M27.5 6.847h-5.595C21.415 4.098 18.957 2 16 2s-5.415 2.098-5.905 4.847H4.5a1 1 0 0 0 0 2h23a1 1 0 1 0 0-2zM16 4c1.843 0 3.383 1.212 3.845 2.847h-7.69C12.617 5.212 14.157 4 16 4zm0 20.713a1 1 0 0 0 1-1V13.138a1 1 0 0 0-2 0v10.575a1 1 0 0 0 1 1zm-4.672 0a1 1 0 0 0 1-1V13.138a1 1 0 0 0-2 0v10.575a1 1 0 0 0 1 1zm9.344 0a1 1 0 0 0 1-1V13.138a1 1 0 1 0-2 0v10.575a1 1 0 0 0 1 1z" style="fill:#b2b9be"/></svg>